<svg xmlns="http://www.w3.org/2000/svg" width="104.5" height="222"><g stroke-miterlimit="10" fill="none"><ellipse transform="matrix(-.997 -.076 .076 -.997 85.397 155.186)" stroke="#F7941E" stroke-width="2.813" cx="45.667" cy="75.959" rx="11.057" ry="9.841"/><ellipse transform="matrix(-.963 -.269 .269 -.963 67.962 161.169)" stroke="#BE1E2D" stroke-width="2.922" cx="45.003" cy="75.937" rx="12.053" ry="9.742"/><ellipse transform="matrix(-.997 -.076 .076 -.997 88.872 186.302)" stroke="#F7941E" stroke-width="2.737" cx="48" cy="91.45" rx="11.128" ry="9.258"/><ellipse transform="matrix(-.806 .591 -.591 -.806 139.699 138.293)" stroke="#BE1E2D" stroke-width="2.922" cx="47.222" cy="92.004" rx="12.053" ry="9.742"/><ellipse transform="matrix(-.997 -.076 .076 -.997 89.992 93.208)" stroke="#F7941E" stroke-width="2.813" cx="46.779" cy="44.882" rx="11.057" ry="9.841"/><ellipse transform="matrix(-.963 -.269 .269 -.963 78.492 100.455)" stroke="#BE1E2D" stroke-width="2.922" cx="46.116" cy="44.86" rx="12.053" ry="9.742"/><ellipse transform="matrix(-.997 -.076 .076 -.997 93.469 124.323)" stroke="#F7941E" stroke-width="2.737" cx="49.113" cy="60.373" rx="11.128" ry="9.258"/><ellipse transform="matrix(-.806 .591 -.591 -.806 123.337 81.493)" stroke="#BE1E2D" stroke-width="2.922" cx="48.335" cy="60.927" rx="12.053" ry="9.742"/><ellipse transform="matrix(-.997 -.076 .076 -.997 90.132 31.742)" stroke="#F7941E" stroke-width="2.813" cx="45.673" cy="14.147" rx="11.057" ry="9.841"/><ellipse transform="matrix(-.963 -.269 .269 -.963 84.573 39.817)" stroke="#BE1E2D" stroke-width="2.922" cx="45.01" cy="14.124" rx="12.053" ry="9.742"/><ellipse transform="matrix(-.997 -.076 .076 -.997 93.61 62.857)" stroke="#F7941E" stroke-width="2.737" cx="48.007" cy="29.638" rx="11.128" ry="9.258"/><ellipse transform="matrix(-.806 .591 -.591 -.806 103.17 26.622)" stroke="#BE1E2D" stroke-width="2.922" cx="47.229" cy="30.192" rx="12.053" ry="9.742"/></g><path fill="#BE1E2D" d="M93.808 130.768s-4.519-3.012-5.423-3.012c-.903 0-26.811-6.436-26.811-6.436l-1.561-13.826-9.133-5.303-14.309.451s-1.205 15.885-2.109 16.528c-.904.644-23.196 9.789-23.196 9.789l-4.518 6.088v28.283l5.12 6.04-2.409 34.324 17.472 15.639h53.923l12.954-18.274-2.109-28.734 2.109-7.921v-33.636zm-23.497 72.927l-21.389-2.635-14.761 2.635-4.218-15.685 5.423-14.466 31.329-1.303 7.23 15.769-3.614 15.685z"/><polygon fill="#BE1E2D" points="-106.137,206.113 -124.47,182.007 -81.786,130.311 -80.678,110.687 -87.335,93.366 -76.791,99.033 -66.679,110.899 -52.733,143.623 -43.299,135.612 -46.2,124.273 -39.457,130.033 -36.543,135.082 -38.979,148.228 -27.352,182.007 -59.963,209.112"/><polygon fill="#BE1E2D" points="-92.791,172.991 -104.291,152.322 -108.162,149.533 -105.791,154.922 -118.254,178.956"/><polygon fill="#F7941E" points="-43.831,151.549 -52.727,159.4 -46.798,168.891"/><path fill="#446B31" d="M-90.705 143.279"/><polygon fill="#FFDE17" points="-120.059,182.007 -100.93,161.382 -103.135,200.779"/><polygon fill="#F7941E" points="-87.078,153.177 -90.705,143.279 -100.93,161.382 -103.135,200.779 -88.256,168.985 -66.679,127.736"/><polygon fill="#FFDE17" points="-103.135,200.779 -61.233,203.695 -88.256,168.985"/><polygon fill="#FFF200" points="-43.831,151.549 -46.798,168.891 -66.679,127.736 -88.256,168.985 -61.233,203.695 -32.816,182.007"/><polygon fill="#F15A29" points="-113.961,171.695 -100.93,161.382 -120.059,182.007"/><polygon fill="#F15A29" points="-90.705,143.279 -83.966,149.295 -87.078,153.177"/><polygon fill="#E3D2B9" points="-73.271,135.958 -72.598,137.025 -71.112,136.212 -66.679,127.736"/><polygon fill="#fff" points="-71.112,136.212 -68.069,136.673 -65.849,134.987 -62.609,136.227 -66.679,127.736"/><polygon fill="#E3D2B9" points="-46.149,153.595 -45.369,154.922 -44.342,154.53 -43.831,151.549"/><polygon fill="#fff" points="-44.342,154.53 -43.831,154.367 -43.343,155.397 -42.691,154.699 -43.831,151.549"/><text transform="translate(-173.158 250.406)" fill="#414042" font-family="'AkzidenzGroteskBE-MdCn'" font-size="37.329">HELLBERG</text><polygon fill="#BE1E2D" points="-88.256,141.366 -98.624,122.2 -106.921,118.289 -101.791,132.38 -100.93,159.033"/><polygon points="26.63,169.371 17.894,188.01 25.123,206.079 48.922,203.695 71.214,206.079 76.034,188.01 67.599,169.371" fill="none"/><path fill="#FFDE17" d="M82.963 165.455l.75-30.059-6.23-5.379-27.205-7.522v-18.496h-12.277l-1.807 17.849-24.627 8.92-3.012 4.28 1.32 27.077 5.007 5.917-2.711 35.653 16.568 12.627 50.609-3.314 5.422-22.594-7.983-16.869 6.176-8.09zm-11.749 40.624l-22.292-2.384-23.799 2.384-7.229-18.068 8.737-18.64h40.969l8.435 18.64-4.821 18.068z"/></svg>