<?xml version="1.0" encoding="utf-8"?>
<!-- Generator: Adobe Illustrator 16.0.0, SVG Export Plug-In . SVG Version: 6.00 Build 0)  -->
<!DOCTYPE svg PUBLIC "-//W3C//DTD SVG 1.1//EN" "http://www.w3.org/Graphics/SVG/1.1/DTD/svg11.dtd">
<svg version="1.1" id="Layer_1" xmlns="http://www.w3.org/2000/svg" xmlns:xlink="http://www.w3.org/1999/xlink" x="0px" y="0px"
	 width="104.5px" height="167.604px" viewBox="0 0 104.5 167.604" enable-background="new 0 0 104.5 167.604" xml:space="preserve">
<path fill="#BE1E2D" d="M93.808,39.768c0,0-4.519-3.012-5.423-3.012c-0.903,0-26.811-6.436-26.811-6.436l-1.561-13.826l-9.133-5.303
	l-14.309,0.451c0,0-1.205,15.885-2.109,16.528c-0.904,0.644-23.196,9.789-23.196,9.789l-4.518,6.088v28.283l5.12,6.04l-2.409,34.324
	l17.472,15.639h53.923l12.954-18.274l-2.109-28.734l2.109-7.921V39.768z M70.311,112.695l-21.389-2.635l-14.761,2.635L29.943,97.01
	l5.423-14.466l31.329-1.303l7.23,15.769L70.311,112.695z"/>
<polygon fill="none" points="26.63,78.371 17.894,97.01 25.123,115.079 48.922,112.695 71.214,115.079 76.034,97.01 67.599,78.371 
	"/>
<polygon fill="#FFF200" points="83.712,44.396 77.482,39.017 50.278,31.495 50.278,12.999 38.001,12.999 36.194,30.848 
	11.567,39.768 8.555,44.048 9.875,71.125 82.963,74.455 "/>
<path fill="#FFDE17" d="M76.786,82.544l6.177-8.089l-73.088-3.33l5.007,5.917l-2.711,35.653l16.568,12.627l50.609-3.314
	l5.422-22.594L76.786,82.544z M71.214,115.079l-22.292-2.384l-23.799,2.384L17.894,97.01l8.737-18.64h40.969l8.435,18.64
	L71.214,115.079z"/>
</svg>
