<?xml version="1.0" encoding="utf-8"?>
<!-- Generator: Adobe Illustrator 16.0.0, SVG Export Plug-In . SVG Version: 6.00 Build 0)  -->
<!DOCTYPE svg PUBLIC "-//W3C//DTD SVG 1.1//EN" "http://www.w3.org/Graphics/SVG/1.1/DTD/svg11.dtd">
<svg version="1.1" id="Layer_1" xmlns="http://www.w3.org/2000/svg" xmlns:xlink="http://www.w3.org/1999/xlink" x="0px" y="0px"
	 width="104.5px" height="222px" viewBox="0 0 104.5 222" enable-background="new 0 0 104.5 222" xml:space="preserve">
<g>
	
		<ellipse transform="matrix(-0.9971 -0.0764 0.0764 -0.9971 85.3965 155.1857)" fill="none" stroke="#F7941E" stroke-width="2.8132" stroke-miterlimit="10" cx="45.667" cy="75.959" rx="11.057" ry="9.841"/>
	
		<ellipse transform="matrix(-0.9633 -0.2685 0.2685 -0.9633 67.9619 161.1693)" fill="none" stroke="#BE1E2D" stroke-width="2.9221" stroke-miterlimit="10" cx="45.003" cy="75.937" rx="12.053" ry="9.742"/>
	
		<ellipse transform="matrix(-0.9971 -0.0764 0.0764 -0.9971 88.8723 186.3015)" fill="none" stroke="#F7941E" stroke-width="2.7373" stroke-miterlimit="10" cx="48" cy="91.45" rx="11.128" ry="9.258"/>
	
		<ellipse transform="matrix(-0.8065 0.5912 -0.5912 -0.8065 139.6987 138.2928)" fill="none" stroke="#BE1E2D" stroke-width="2.9221" stroke-miterlimit="10" cx="47.222" cy="92.004" rx="12.053" ry="9.742"/>
	
		<ellipse transform="matrix(-0.9971 -0.0764 0.0764 -0.9971 89.992 93.2077)" fill="none" stroke="#F7941E" stroke-width="2.8132" stroke-miterlimit="10" cx="46.779" cy="44.882" rx="11.057" ry="9.841"/>
	
		<ellipse transform="matrix(-0.9633 -0.2685 0.2685 -0.9633 78.4918 100.4552)" fill="none" stroke="#BE1E2D" stroke-width="2.9221" stroke-miterlimit="10" cx="46.116" cy="44.86" rx="12.053" ry="9.742"/>
	
		<ellipse transform="matrix(-0.9971 -0.0764 0.0764 -0.9971 93.4691 124.323)" fill="none" stroke="#F7941E" stroke-width="2.7373" stroke-miterlimit="10" cx="49.113" cy="60.373" rx="11.128" ry="9.258"/>
	
		<ellipse transform="matrix(-0.8065 0.5912 -0.5912 -0.8065 123.3372 81.4926)" fill="none" stroke="#BE1E2D" stroke-width="2.9221" stroke-miterlimit="10" cx="48.335" cy="60.927" rx="12.053" ry="9.742"/>
	
		<ellipse transform="matrix(-0.9971 -0.0764 0.0764 -0.9971 90.1315 31.7418)" fill="none" stroke="#F7941E" stroke-width="2.8132" stroke-miterlimit="10" cx="45.673" cy="14.147" rx="11.057" ry="9.841"/>
	
		<ellipse transform="matrix(-0.9633 -0.2685 0.2685 -0.9633 84.5734 39.8166)" fill="none" stroke="#BE1E2D" stroke-width="2.9221" stroke-miterlimit="10" cx="45.01" cy="14.124" rx="12.053" ry="9.742"/>
	
		<ellipse transform="matrix(-0.9971 -0.0764 0.0764 -0.9971 93.6097 62.8572)" fill="none" stroke="#F7941E" stroke-width="2.7373" stroke-miterlimit="10" cx="48.007" cy="29.638" rx="11.128" ry="9.258"/>
	
		<ellipse transform="matrix(-0.8065 0.5912 -0.5912 -0.8065 103.1698 26.6224)" fill="none" stroke="#BE1E2D" stroke-width="2.9221" stroke-miterlimit="10" cx="47.229" cy="30.192" rx="12.053" ry="9.742"/>
</g>
<path fill="#BE1E2D" d="M93.808,130.768c0,0-4.519-3.012-5.423-3.012c-0.903,0-26.811-6.436-26.811-6.436l-1.561-13.826
	l-9.133-5.303l-14.309,0.451c0,0-1.205,15.885-2.109,16.528c-0.904,0.644-23.196,9.789-23.196,9.789l-4.518,6.088v28.283l5.12,6.04
	l-2.409,34.324l17.472,15.639h53.923l12.954-18.274l-2.109-28.734l2.109-7.921V130.768z M70.311,203.695l-21.389-2.635
	l-14.761,2.635l-4.218-15.685l5.423-14.466l31.329-1.303l7.23,15.769L70.311,203.695z"/>
<g>
	<polygon fill="#BE1E2D" points="-106.137,206.113 -124.47,182.007 -81.786,130.311 -80.678,110.687 -87.335,93.366 -76.791,99.033 
		-66.679,110.899 -52.733,143.623 -43.299,135.612 -46.2,124.273 -39.457,130.033 -36.543,135.082 -38.979,148.228 -27.352,182.007 
		-59.963,209.112 	"/>
	<polygon fill="#BE1E2D" points="-92.791,172.991 -104.291,152.322 -108.162,149.533 -105.791,154.922 -118.254,178.956 	"/>
	<polygon fill="#F7941E" points="-43.831,151.549 -52.727,159.4 -46.798,168.891 	"/>
	<path fill="#446B31" d="M-90.705,143.279"/>
	<polygon fill="#FFDE17" points="-120.059,182.007 -100.93,161.382 -103.135,200.779 	"/>
	<polygon fill="#F7941E" points="-87.078,153.177 -90.705,143.279 -100.93,161.382 -103.135,200.779 -88.256,168.985 
		-66.679,127.736 	"/>
	<polygon fill="#FFDE17" points="-103.135,200.779 -61.233,203.695 -88.256,168.985 	"/>
	<polygon fill="#FFF200" points="-43.831,151.549 -46.798,168.891 -66.679,127.736 -88.256,168.985 -61.233,203.695 
		-32.816,182.007 	"/>
	<polygon fill="#F15A29" points="-113.961,171.695 -100.93,161.382 -120.059,182.007 	"/>
	<polygon fill="#F15A29" points="-90.705,143.279 -83.966,149.295 -87.078,153.177 	"/>
	<polygon fill="#E3D2B9" points="-73.271,135.958 -72.598,137.025 -71.112,136.212 -66.679,127.736 	"/>
	<polygon fill="#FFFFFF" points="-71.112,136.212 -68.069,136.673 -65.849,134.987 -62.609,136.227 -66.679,127.736 	"/>
	<polygon fill="#E3D2B9" points="-46.149,153.595 -45.369,154.922 -44.342,154.53 -43.831,151.549 	"/>
	<polygon fill="#FFFFFF" points="-44.342,154.53 -43.831,154.367 -43.343,155.397 -42.691,154.699 -43.831,151.549 	"/>
	<text transform="matrix(1 0 0 1 -173.1582 250.4062)" fill="#414042" font-family="'AkzidenzGroteskBE-MdCn'" font-size="37.3287">HELLBERG</text>
	<polygon fill="#BE1E2D" points="-88.256,141.366 -98.624,122.2 -106.921,118.289 -101.791,132.38 -100.93,159.033 	"/>
</g>
<polygon fill="none" points="26.63,169.371 17.894,188.01 25.123,206.079 48.922,203.695 71.214,206.079 76.034,188.01 
	67.599,169.371 "/>
<path fill="#FFDE17" d="M82.963,165.455l0.75-30.059l-6.23-5.379l-27.205-7.522v-18.496H38.001l-1.807,17.849l-24.627,8.92
	l-3.012,4.28l1.32,27.077l5.007,5.917l-2.711,35.653l16.568,12.627l50.609-3.314l5.422-22.594l-7.983-16.869L82.963,165.455z
	 M71.214,206.079l-22.292-2.384l-23.799,2.384l-7.229-18.068l8.737-18.64h40.969l8.435,18.64L71.214,206.079z"/>
</svg>
